<svg width="32" height="32" viewBox="0 0 32 32" fill="none" xmlns="http://www.w3.org/2000/svg">
<circle cx="16" cy="16" r="16" fill="#0D28A6"/>
<g clip-path="url(#clip0_27_60)">
<path d="M8 9.146C8 8.513 8.526 8 9.175 8H22.825C23.474 8 24 8.513 24 9.146V22.854C24 23.487 23.474 24 22.825 24H9.175C8.526 24 8 23.487 8 22.854V9.146ZM12.943 21.394V14.169H10.542V21.394H12.943ZM11.743 13.182C12.58 13.182 13.101 12.628 13.101 11.934C13.086 11.225 12.581 10.686 11.759 10.686C10.937 10.686 10.4 11.226 10.4 11.934C10.4 12.628 10.921 13.182 11.727 13.182H11.743ZM16.651 21.394V17.359C16.651 17.143 16.667 16.927 16.731 16.773C16.904 16.342 17.299 15.895 17.963 15.895C18.832 15.895 19.179 16.557 19.179 17.529V21.394H21.58V17.25C21.58 15.03 20.396 13.998 18.816 13.998C17.542 13.998 16.971 14.698 16.651 15.191V15.216H16.635L16.651 15.191V14.169H14.251C14.281 14.847 14.251 21.394 14.251 21.394H16.651Z" fill="white"/>
</g>
<defs>
<clipPath id="clip0_27_60">
<rect width="16" height="16" fill="white" transform="translate(8 8)"/>
</clipPath>
</defs>
</svg>
