<svg width="40" height="40" viewBox="0 0 40 40" fill="none" xmlns="http://www.w3.org/2000/svg">
<g clip-path="url(#clip0_68_72)">
<path d="M20 40C14.6957 40 9.60859 37.8929 5.85786 34.1421C2.10714 30.3914 0 25.3043 0 20C0 14.6957 2.10714 9.60859 5.85786 5.85786C9.60859 2.10714 14.6957 0 20 0C25.3043 0 30.3914 2.10714 34.1421 5.85786C37.8929 9.60859 40 14.6957 40 20C40 25.3043 37.8929 30.3914 34.1421 34.1421C30.3914 37.8929 25.3043 40 20 40ZM28.75 21.25C29.0815 21.25 29.3995 21.1183 29.6339 20.8839C29.8683 20.6495 30 20.3315 30 20C30 19.6685 29.8683 19.3505 29.6339 19.1161C29.3995 18.8817 29.0815 18.75 28.75 18.75L14.2675 18.75L19.635 13.385C19.7512 13.2688 19.8434 13.1308 19.9063 12.979C19.9692 12.8271 20.0016 12.6644 20.0016 12.5C20.0016 12.3356 19.9692 12.1729 19.9063 12.021C19.8434 11.8692 19.7512 11.7312 19.635 11.615C19.5188 11.4988 19.3808 11.4066 19.229 11.3437C19.0771 11.2808 18.9144 11.2484 18.75 11.2484C18.5856 11.2484 18.4229 11.2808 18.271 11.3437C18.1192 11.4066 17.9812 11.4988 17.865 11.615L10.365 19.115C10.2486 19.2311 10.1562 19.3691 10.0932 19.5209C10.0302 19.6728 9.99777 19.8356 9.99777 20C9.99777 20.1644 10.0302 20.3272 10.0932 20.4791C10.1562 20.6309 10.2486 20.7689 10.365 20.885L17.865 28.385C17.9812 28.5012 18.1192 28.5934 18.271 28.6563C18.4229 28.7192 18.5856 28.7516 18.75 28.7516C18.9144 28.7516 19.0771 28.7192 19.229 28.6563C19.3808 28.5934 19.5188 28.5012 19.635 28.385C19.7512 28.2688 19.8434 28.1308 19.9063 27.979C19.9692 27.8271 20.0016 27.6644 20.0016 27.5C20.0016 27.3356 19.9692 27.1729 19.9063 27.021C19.8434 26.8692 19.7512 26.7312 19.635 26.615L14.2675 21.25L28.75 21.25Z" fill="#0888C5"/>
</g>
<defs>
<clipPath id="clip0_68_72">
<rect width="40" height="40" fill="white" transform="matrix(-1 0 0 -1 40 40)"/>
</clipPath>
</defs>
</svg>
