<svg width="16" height="16" viewBox="0 0 16 16" fill="none" xmlns="http://www.w3.org/2000/svg">
<path fill-rule="evenodd" clip-rule="evenodd" d="M6 3.5C6 3.36739 6.05268 3.24021 6.14645 3.14645C6.24021 3.05268 6.36739 3 6.5 3H14.5C14.6326 3 14.7598 3.05268 14.8536 3.14645C14.9473 3.24021 15 3.36739 15 3.5V12.5C15 12.6326 14.9473 12.7598 14.8536 12.8536C14.7598 12.9473 14.6326 13 14.5 13H6.5C6.36739 13 6.24021 12.9473 6.14645 12.8536C6.05268 12.7598 6 12.6326 6 12.5V10.5C6 10.3674 5.94732 10.2402 5.85355 10.1464C5.75979 10.0527 5.63261 10 5.5 10C5.36739 10 5.24021 10.0527 5.14645 10.1464C5.05268 10.2402 5 10.3674 5 10.5V12.5C5 12.8978 5.15804 13.2794 5.43934 13.5607C5.72064 13.842 6.10218 14 6.5 14H14.5C14.8978 14 15.2794 13.842 15.5607 13.5607C15.842 13.2794 16 12.8978 16 12.5V3.5C16 3.10218 15.842 2.72064 15.5607 2.43934C15.2794 2.15804 14.8978 2 14.5 2H6.5C6.10218 2 5.72064 2.15804 5.43934 2.43934C5.15804 2.72064 5 3.10218 5 3.5V5.5C5 5.63261 5.05268 5.75979 5.14645 5.85355C5.24021 5.94732 5.36739 6 5.5 6C5.63261 6 5.75979 5.94732 5.85355 5.85355C5.94732 5.75979 6 5.63261 6 5.5V3.5Z" fill="white"/>
<path fill-rule="evenodd" clip-rule="evenodd" d="M11.854 8.35402C11.9006 8.30758 11.9375 8.2524 11.9627 8.19165C11.9879 8.13091 12.0009 8.06579 12.0009 8.00002C12.0009 7.93425 11.9879 7.86913 11.9627 7.80839C11.9375 7.74764 11.9006 7.69247 11.854 7.64602L8.854 4.64602C8.80751 4.59953 8.75232 4.56266 8.69158 4.5375C8.63084 4.51234 8.56574 4.49939 8.5 4.49939C8.43426 4.49939 8.36916 4.51234 8.30842 4.5375C8.24768 4.56266 8.19249 4.59953 8.146 4.64602C8.09951 4.69251 8.06264 4.7477 8.03748 4.80844C8.01232 4.86918 7.99937 4.93428 7.99937 5.00002C7.99937 5.06577 8.01232 5.13087 8.03748 5.19161C8.06264 5.25234 8.09951 5.30753 8.146 5.35402L10.293 7.50002H1.5C1.36739 7.50002 1.24021 7.5527 1.14645 7.64647C1.05268 7.74024 1 7.86741 1 8.00002C1 8.13263 1.05268 8.25981 1.14645 8.35358C1.24021 8.44734 1.36739 8.50002 1.5 8.50002H10.293L8.146 10.646C8.09951 10.6925 8.06264 10.7477 8.03748 10.8084C8.01232 10.8692 7.99937 10.9343 7.99937 11C7.99937 11.0658 8.01232 11.1309 8.03748 11.1916C8.06264 11.2523 8.09951 11.3075 8.146 11.354C8.19249 11.4005 8.24768 11.4374 8.30842 11.4625C8.36916 11.4877 8.43426 11.5007 8.5 11.5007C8.56574 11.5007 8.63084 11.4877 8.69158 11.4625C8.75232 11.4374 8.80751 11.4005 8.854 11.354L11.854 8.35402Z" fill="white"/>
</svg>
